<?xml version="1.0" encoding="UTF-8" standalone="no"?>
<!-- Created with Inkscape (http://www.inkscape.org/) -->

<svg
   xmlns:dc="http://purl.org/dc/elements/1.1/"
   xmlns:cc="http://creativecommons.org/ns#"
   xmlns:rdf="http://www.w3.org/1999/02/22-rdf-syntax-ns#"
   xmlns:svg="http://www.w3.org/2000/svg"
   xmlns="http://www.w3.org/2000/svg"
   xmlns:sodipodi="http://sodipodi.sourceforge.net/DTD/sodipodi-0.dtd"
   xmlns:inkscape="http://www.inkscape.org/namespaces/inkscape"
   width="744.09448819"
   height="1052.3622047"
   id="svg2"
   version="1.1"
   inkscape:version="0.48.2 r9819"
   sodipodi:docname="New document 1">
  <defs
     id="defs4" />
  <sodipodi:namedview
     id="base"
     pagecolor="#ffffff"
     bordercolor="#666666"
     borderopacity="1.0"
     inkscape:pageopacity="0.0"
     inkscape:pageshadow="2"
     inkscape:zoom="1.28"
     inkscape:cx="486.03409"
     inkscape:cy="745.96991"
     inkscape:document-units="px"
     inkscape:current-layer="layer1"
     showgrid="false"
     inkscape:window-width="1440"
     inkscape:window-height="852"
     inkscape:window-x="0"
     inkscape:window-y="22"
     inkscape:window-maximized="1" />
  <metadata
     id="metadata7">
    <rdf:RDF>
      <cc:Work
         rdf:about="">
        <dc:format>image/svg+xml</dc:format>
        <dc:type
           rdf:resource="http://purl.org/dc/dcmitype/StillImage" />
        <dc:title></dc:title>
      </cc:Work>
    </rdf:RDF>
  </metadata>
  <g
     inkscape:label="Layer 1"
     inkscape:groupmode="layer"
     id="layer1">
    <path
       style="fill:#333333;fill-opacity:0.34347826;stroke:none"
       d="m 358.9375,187.8125 c -47.07535,1.19266 -85.43785,37.43084 -90,83.59375 -24.14029,7.00229 -41.78125,29.28932 -41.78125,55.6875 0,32.01309 25.95566,57.96875 57.96875,57.96875 3.45157,0 6.73898,-0.10556 10.09375,-0.0625 l 0,-0.0312 64.875,0 0,-65.84375 -35.9375,0 64.21875,-64.1875 64.1875,64.1875 -37.9375,0 0,65.84375 83.125,0 0,-0.0312 0.0312,0 c 27.61424,0 50,-22.38576 50,-50 0,-22.60646 -15.00166,-41.69012 -35.59375,-47.875 1.0135,-4.4801 1.5625,-9.11969 1.5625,-13.90625 0,-34.71504 -28.12871,-62.875 -62.84375,-62.875 -8.46467,0 -16.53585,1.68509 -23.90625,4.71875 -16.80384,-16.80384 -40.01446,-27.1875 -65.65625,-27.1875 -0.80131,0 -1.60981,-0.0202 -2.40625,0 z"
       id="path2985"
       inkscape:connector-curvature="0"
       inkscape:export-filename="/Users/jonathan/Sites/blog/public/img/upload.png"
       inkscape:export-xdpi="140.52602"
       inkscape:export-ydpi="140.52602" />
    <text
       xml:space="preserve"
       style="font-size:40px;font-style:normal;font-weight:normal;line-height:125%;letter-spacing:0px;word-spacing:0px;fill:#000000;fill-opacity:1;stroke:none;font-family:Sans"
       x="388.81396"
       y="415.83203"
       id="text3777"
       sodipodi:linespacing="125%"><tspan
         sodipodi:role="line"
         id="tspan3779"
         x="388.81396"
         y="415.83203"
         style="font-size:24px;font-style:normal;font-variant:normal;font-weight:normal;font-stretch:normal;text-align:center;line-height:125%;writing-mode:lr-tb;text-anchor:middle;font-family:Sans;-inkscape-font-specification:Sans">Drop image here to upload</tspan></text>
  </g>
</svg>
